<?xml version="1.0" encoding="UTF-8"?>
<svg id="Layer_2" data-name="Layer 2" xmlns="http://www.w3.org/2000/svg" viewBox="0 0 240.68 174.86">
  <defs>
    <style>
      .cls-1 {
        fill: none;
        stroke: #4d4d4d;
        stroke-miterlimit: 10;
      }
    </style>
  </defs>
  <g id="Layer_1-2" data-name="Layer 1">
    <path class="cls-1" d="M.51,174.78c-.47-2.91,17-6,25-6,13.6,0,18.25-25.73,27-32,4.09-2.93,24-.39,33.81-2,12.19-2,23.19-22,27.19-22,0,0,6.71-4.91,27,15,18.9,18.55,21-23,23.67-35.16.47-2.16.78-4.33,1.51-6.41,2.7-7.7,9.56-24.68,15.82-18.43,8,8,12,17,14-7S202.51-3.22,221.51.78l19,7"/>
  </g>
</svg>