<?xml version="1.0" encoding="UTF-8"?>
<svg id="Layer_2" data-name="Layer 2" xmlns="http://www.w3.org/2000/svg" viewBox="0 0 16 16.66">
  <defs>
    <style>
      .cls-1 {
        fill: #bfcacd;
        stroke-width: 0px;
      }
    </style>
  </defs>
  <g id="Layer_1-2" data-name="Layer 1">
    <path class="cls-1" d="M13.17,5.66h-1.84v-2.93c0-1.51-1.22-2.73-2.73-2.73h-1.66c-1.51,0-2.73,1.22-2.73,2.73v2.93h-1.38c-1.56,0-2.83,1.26-2.83,2.82v5.35c0,1.56,1.27,2.83,2.83,2.83h10.34c1.56,0,2.83-1.27,2.83-2.83v-5.35c0-1.56-1.27-2.82-2.83-2.82ZM9.5,13.4h-3v-4.5h3v4.5ZM5.62,5.82l-.05-3.19c0-.88.82-1.62,1.85-1.63h1.06c1.03-.03,1.88.68,1.89,1.57l.05,3.19-4.8.06Z"/>
  </g>
</svg>