<?xml version="1.0" encoding="UTF-8"?>
<svg id="Layer_2" data-name="Layer 2" xmlns="http://www.w3.org/2000/svg" viewBox="0 0 22.75 24.49">
  <defs>
    <style>
      .cls-1 {
        fill: #243d47;
        stroke: #333;
        stroke-miterlimit: 10;
        stroke-width: .75px;
      }
    </style>
  </defs>
  <g id="Layer_1-2" data-name="Layer 1">
    <g>
      <rect class="cls-1" x=".38" y="9.12" width="7" height="10" rx="1.35" ry="1.35"/>
      <path class="cls-1" d="M20.3,8.2l-2.21,5.95c-.22.58-.77.97-1.39.97h-5.3c-.64,0-1.15-.52-1.15-1.15V1.84c0-.81.66-1.46,1.46-1.46h8.85c1,0,1.82.81,1.82,1.82v.66c0,.72-.17,1.43-.49,2.07l-1.33,2.68c-.1.19-.18.39-.26.59Z"/>
      <path class="cls-1" d="M12.41,24.12h-1.06c-.62,0-1.12-.5-1.12-1.12v-3.95c0-.61.49-1.1,1.1-1.1h3.94c.21,0,.39.52.49.98.08.35.03.71-.14,1.03l-1.66,3.13c-.26.63-.87,1.04-1.55,1.04Z"/>
    </g>
  </g>
</svg>