<svg viewBox="0 0 512 512" xml:space="preserve" xmlns="http://www.w3.org/2000/svg"><g fill="#ffffff" class="fill-6a6e7c"><path d="M256 512c-68.4 0-132.7-26.6-181-75S0 324.4 0 256 26.6 123.3 75 75 187.6 0 256 0c48.5 0 95.7 13.6 136.6 39.4 28.7 18.1 53.3 41.6 72.7 69.1V24.4c0-5.8 4.7-10.5 10.5-10.5s10.5 4.7 10.5 10.5v122.3c0 4.9-3.4 9.1-8.1 10.3-4.8 1.1-9.7-1.2-11.9-5.6C426.3 71 345.7 21.1 256 21.1 126.5 21.1 21.1 126.5 21.1 256S126.5 490.9 256 490.9 490.9 385.5 490.9 256c0-5.8 4.7-10.5 10.5-10.5s10.5 4.7 10.5 10.5c0 68.4-26.6 132.7-75 181S324.4 512 256 512z"></path><path d="M474.8 158.2H357.5c-5.8 0-10.5-4.7-10.5-10.5s4.7-10.5 10.5-10.5h117.3c5.8 0 10.5 4.7 10.5 10.5s-4.7 10.5-10.5 10.5z"></path></g></svg>